  0
SECTION
  2
HEADER
  9
$ACADVER
  1
AC1014
  9
$HANDSEED
  5
FFFF
  9
$MEASUREMENT
 70
     1
  0
ENDSEC
  0
SECTION
  2
TABLES
  0
TABLE
  2
VPORT
  5
8
330
0
100
AcDbSymbolTable
 70
     4
  0
VPORT
  5
2E
330
8
100
AcDbSymbolTableRecord
100
AcDbViewportTableRecord
  2
*ACTIVE
 70
     0
 10
0.0
 20
0.0
 11
1.0
 21
1.0
 12
210.0
 22
148.5
 13
0.0
 23
0.0
 14
10.0
 24
10.0
 15
10.0
 25
10.0
 16
0.0
 26
0.0
 36
1.0
 17
0.0
 27
0.0
 37
0.0
 40
341.0
 41
1.24
 42
50.0
 43
0.0
 44
0.0
 50
0.0
 51
0.0
 71
     0
 72
   100
 73
     1
 74
     3
 75
     0
 76
     0
 77
     0
 78
     0
  0
ENDTAB
  0
TABLE
  2
LTYPE
  5
5
330
0
100
AcDbSymbolTable
 70
     1
  0
LTYPE
  5
14
330
5
100
AcDbSymbolTableRecord
100
AcDbLinetypeTableRecord
  2
BYBLOCK
 70
     0
  3

 72
    65
 73
     0
 40
0.0
  0
LTYPE
  5
15
330
5
100
AcDbSymbolTableRecord
100
AcDbLinetypeTableRecord
  2
BYLAYER
 70
     0
  3

 72
    65
 73
     0
 40
0.0
  0
LTYPE
  5
16
330
5
100
AcDbSymbolTableRecord
100
AcDbLinetypeTableRecord
  2
CONTINUOUS
 70
     0
  3
Solid line
 72
    65
 73
     0
 40
0.0
  0
ENDTAB
  0
TABLE
  2
LAYER
  5
2
100
AcDbSymbolTable
 70
1
  0
LAYER
  5
50
100
AcDbSymbolTableRecord
100
AcDbLayerTableRecord
  2
0
 70
0
  6
CONTINUOUS
  0
ENDTAB
  0
TABLE
  2
STYLE
  5
3
330
0
100
AcDbSymbolTable
 70
     1
  0
STYLE
  5
11
330
3
100
AcDbSymbolTableRecord
100
AcDbTextStyleTableRecord
  2
STANDARD
 70
     0
 40
0.0
 41
1.0
 50
0.0
 71
     0
 42
2.5
  3
txt
  4

  0
ENDTAB
  0
TABLE
  2
VIEW
  5
6
330
0
100
AcDbSymbolTable
 70
     0
  0
ENDTAB
  0
TABLE
  2
UCS
  5
7
330
0
100
AcDbSymbolTable
 70
     0
  0
ENDTAB
  0
TABLE
  2
APPID
  5
9
330
0
100
AcDbSymbolTable
 70
     2
  0
APPID
  5
12
330
9
100
AcDbSymbolTableRecord
100
AcDbRegAppTableRecord
  2
ACAD
 70
     0
  0
ENDTAB
  0
TABLE
  2
DIMSTYLE
  5
A
330
0
100
AcDbSymbolTable
 70
     1
  0
DIMSTYLE
105
27
330
A
100
AcDbSymbolTableRecord
100
AcDbDimStyleTableRecord
  2
ISO-25
 70
     0
  3

  4

  5

  6

  7

 40
1.0
 41
2.5
 42
0.625
 43
3.75
 44
1.25
 45
0.0
 46
0.0
 47
0.0
 48
0.0
140
2.5
141
2.5
142
0.0
143
0.03937007874016
144
1.0
145
0.0
146
1.0
147
0.625
 71
     0
 72
     0
 73
     0
 74
     0
 75
     0
 76
     0
 77
     1
 78
     8
170
     0
171
     3
172
     1
173
     0
174
     0
175
     0
176
     0
177
     0
178
     0
270
     2
271
     2
272
     2
273
     2
274
     3
340
11
275
     0
280
     0
281
     0
282
     0
283
     0
284
     8
285
     0
286
     0
287
     3
288
     0
  0
ENDTAB
  0
TABLE
  2
BLOCK_RECORD
  5
1
330
0
100
AcDbSymbolTable
 70
     1
  0
BLOCK_RECORD
  5
1F
330
1
100
AcDbSymbolTableRecord
100
AcDbBlockTableRecord
  2
*MODEL_SPACE
  0
BLOCK_RECORD
  5
1B
330
1
100
AcDbSymbolTableRecord
100
AcDbBlockTableRecord
  2
*PAPER_SPACE
  0
ENDTAB
  0
ENDSEC
  0
SECTION
  2
BLOCKS
  0
BLOCK
  5
20
330
1F
100
AcDbEntity
  8
0
100
AcDbBlockBegin
  2
*MODEL_SPACE
 70
     0
 10
0.0
 20
0.0
 30
0.0
  3
*MODEL_SPACE
  1

  0
ENDBLK
  5
21
330
1F
100
AcDbEntity
  8
0
100
AcDbBlockEnd
  0
BLOCK
  5
1C
330
1B
100
AcDbEntity
 67
     1
  8
0
100
AcDbBlockBegin
  2
*PAPER_SPACE
  1

  0
ENDBLK
  5
1D
330
1B
100
AcDbEntity
 67
     1
  8
0
100
AcDbBlockEnd
  0
ENDSEC
  0
SECTION
  2
ENTITIES
  0
SPLINE
  5
100
100
AcDbEntity
  8
0
 62
7
100
AcDbSpline
 70
8
 71
3
 72
8
 73
4
 74
0
 40
0
 40
0
 40
0
 40
0
 40
1
 40
1
 40
1
 40
1
 10
-35.559599
 20
59.212812
 30
0.0
 10
-35.559599
 20
60.284609
 30
0.0
 10
-36.131396
 20
61.274990
 30
0.0
 10
-37.059600
 20
61.810889
 30
0.0
  0
SPLINE
  5
101
100
AcDbEntity
  8
0
 62
7
100
AcDbSpline
 70
8
 71
3
 72
8
 73
4
 74
0
 40
0
 40
0
 40
0
 40
0
 40
1
 40
1
 40
1
 40
1
 10
-37.059600
 20
61.810889
 30
0.0
 10
-37.987803
 20
62.346787
 30
0.0
 10
-39.131397
 20
62.346787
 30
0.0
 10
-40.059601
 20
61.810889
 30
0.0
  0
SPLINE
  5
102
100
AcDbEntity
  8
0
 62
7
100
AcDbSpline
 70
8
 71
3
 72
8
 73
4
 74
0
 40
0
 40
0
 40
0
 40
0
 40
1
 40
1
 40
1
 40
1
 10
-40.059601
 20
61.810889
 30
0.0
 10
-40.987804
 20
61.274990
 30
0.0
 10
-41.559601
 20
60.284609
 30
0.0
 10
-41.559601
 20
59.212812
 30
0.0
  0
SPLINE
  5
103
100
AcDbEntity
  8
0
 62
7
100
AcDbSpline
 70
8
 71
3
 72
8
 73
4
 74
0
 40
0
 40
0
 40
0
 40
0
 40
1
 40
1
 40
1
 40
1
 10
-41.559601
 20
59.212812
 30
0.0
 10
-41.559601
 20
58.141014
 30
0.0
 10
-40.987804
 20
57.150633
 30
0.0
 10
-40.059601
 20
56.614734
 30
0.0
  0
SPLINE
  5
104
100
AcDbEntity
  8
0
 62
7
100
AcDbSpline
 70
8
 71
3
 72
8
 73
4
 74
0
 40
0
 40
0
 40
0
 40
0
 40
1
 40
1
 40
1
 40
1
 10
-40.059601
 20
56.614734
 30
0.0
 10
-39.131397
 20
56.078836
 30
0.0
 10
-37.987803
 20
56.078836
 30
0.0
 10
-37.059600
 20
56.614734
 30
0.0
  0
SPLINE
  5
105
100
AcDbEntity
  8
0
 62
7
100
AcDbSpline
 70
8
 71
3
 72
8
 73
4
 74
0
 40
0
 40
0
 40
0
 40
0
 40
1
 40
1
 40
1
 40
1
 10
-37.059600
 20
56.614734
 30
0.0
 10
-36.131396
 20
57.150633
 30
0.0
 10
-35.559599
 20
58.141014
 30
0.0
 10
-35.559599
 20
59.212812
 30
0.0
  0
LINE
  5
106
100
AcDbEntity
  8
0
 62
7
100
AcDbLine
 10
-35.559599
 20
59.212812
 30
0.0
 11
-35.559599
 21
59.212812
 31
0.0
  0
SPLINE
  5
107
100
AcDbEntity
  8
0
 62
7
100
AcDbSpline
 70
8
 71
3
 72
8
 73
4
 74
0
 40
0
 40
0
 40
0
 40
0
 40
1
 40
1
 40
1
 40
1
 10
-26.466333
 20
53.962812
 30
0.0
 10
-26.466005
 20
55.034828
 30
0.0
 10
-27.037730
 20
56.025552
 30
0.0
 10
-27.966068
 20
56.561655
 30
0.0
  0
SPLINE
  5
108
100
AcDbEntity
  8
0
 62
7
100
AcDbSpline
 70
8
 71
3
 72
8
 73
4
 74
0
 40
0
 40
0
 40
0
 40
0
 40
1
 40
1
 40
1
 40
1
 10
-27.966068
 20
56.561655
 30
0.0
 10
-28.894406
 20
57.097758
 30
0.0
 10
-30.038261
 20
57.097758
 30
0.0
 10
-30.966599
 20
56.561655
 30
0.0
  0
SPLINE
  5
109
100
AcDbEntity
  8
0
 62
7
100
AcDbSpline
 70
8
 71
3
 72
8
 73
4
 74
0
 40
0
 40
0
 40
0
 40
0
 40
1
 40
1
 40
1
 40
1
 10
-30.966599
 20
56.561655
 30
0.0
 10
-31.894938
 20
56.025552
 30
0.0
 10
-32.466662
 20
55.034828
 30
0.0
 10
-32.466334
 20
53.962812
 30
0.0
  0
SPLINE
  5
10a
100
AcDbEntity
  8
0
 62
7
100
AcDbSpline
 70
8
 71
3
 72
8
 73
4
 74
0
 40
0
 40
0
 40
0
 40
0
 40
1
 40
1
 40
1
 40
1
 10
-32.466334
 20
53.962812
 30
0.0
 10
-32.465826
 20
52.306317
 30
0.0
 10
-31.122829
 20
50.963732
 30
0.0
 10
-29.466334
 20
50.963732
 30
0.0
  0
SPLINE
  5
10b
100
AcDbEntity
  8
0
 62
7
100
AcDbSpline
 70
8
 71
3
 72
8
 73
4
 74
0
 40
0
 40
0
 40
0
 40
0
 40
1
 40
1
 40
1
 40
1
 10
-29.466334
 20
50.963732
 30
0.0
 10
-27.809839
 20
50.963732
 30
0.0
 10
-26.466842
 20
52.306317
 30
0.0
 10
-26.466333
 20
53.962812
 30
0.0
  0
LINE
  5
10c
100
AcDbEntity
  8
0
 62
7
100
AcDbLine
 10
-26.466333
 20
53.962812
 30
0.0
 11
-26.466333
 21
53.962812
 31
0.0
  0
SPLINE
  5
10d
100
AcDbEntity
  8
0
 62
7
100
AcDbSpline
 70
8
 71
3
 72
8
 73
4
 74
0
 40
0
 40
0
 40
0
 40
0
 40
1
 40
1
 40
1
 40
1
 10
-67.559600
 20
3.787198
 30
0.0
 10
-67.558942
 20
4.859433
 30
0.0
 10
-68.130595
 20
5.850500
 30
0.0
 10
-69.059068
 20
6.386808
 30
0.0
  0
SPLINE
  5
10e
100
AcDbEntity
  8
0
 62
7
100
AcDbSpline
 70
8
 71
3
 72
8
 73
4
 74
0
 40
0
 40
0
 40
0
 40
0
 40
1
 40
1
 40
1
 40
1
 10
-69.059068
 20
6.386808
 30
0.0
 10
-69.987542
 20
6.923115
 30
0.0
 10
-71.131658
 20
6.923115
 30
0.0
 10
-72.060131
 20
6.386808
 30
0.0
  0
SPLINE
  5
10f
100
AcDbEntity
  8
0
 62
7
100
AcDbSpline
 70
8
 71
3
 72
8
 73
4
 74
0
 40
0
 40
0
 40
0
 40
0
 40
1
 40
1
 40
1
 40
1
 10
-72.060131
 20
6.386808
 30
0.0
 10
-72.988604
 20
5.850500
 30
0.0
 10
-73.560257
 20
4.859433
 30
0.0
 10
-73.559599
 20
3.787198
 30
0.0
  0
SPLINE
  5
110
100
AcDbEntity
  8
0
 62
7
100
AcDbSpline
 70
8
 71
3
 72
8
 73
4
 74
0
 40
0
 40
0
 40
0
 40
0
 40
1
 40
1
 40
1
 40
1
 10
-73.559599
 20
3.787198
 30
0.0
 10
-73.560257
 20
2.714963
 30
0.0
 10
-72.988604
 20
1.723895
 30
0.0
 10
-72.060131
 20
1.187588
 30
0.0
  0
SPLINE
  5
111
100
AcDbEntity
  8
0
 62
7
100
AcDbSpline
 70
8
 71
3
 72
8
 73
4
 74
0
 40
0
 40
0
 40
0
 40
0
 40
1
 40
1
 40
1
 40
1
 10
-72.060131
 20
1.187588
 30
0.0
 10
-71.131658
 20
0.651280
 30
0.0
 10
-69.987542
 20
0.651280
 30
0.0
 10
-69.059068
 20
1.187588
 30
0.0
  0
SPLINE
  5
112
100
AcDbEntity
  8
0
 62
7
100
AcDbSpline
 70
8
 71
3
 72
8
 73
4
 74
0
 40
0
 40
0
 40
0
 40
0
 40
1
 40
1
 40
1
 40
1
 10
-69.059068
 20
1.187588
 30
0.0
 10
-68.130595
 20
1.723895
 30
0.0
 10
-67.558942
 20
2.714963
 30
0.0
 10
-67.559600
 20
3.787198
 30
0.0
  0
LINE
  5
113
100
AcDbEntity
  8
0
 62
7
100
AcDbLine
 10
-67.559600
 20
3.787198
 30
0.0
 11
-67.559600
 21
3.787198
 31
0.0
  0
SPLINE
  5
114
100
AcDbEntity
  8
0
 62
7
100
AcDbSpline
 70
8
 71
3
 72
8
 73
4
 74
0
 40
0
 40
0
 40
0
 40
0
 40
1
 40
1
 40
1
 40
1
 10
-58.466332
 20
-1.462813
 30
0.0
 10
-58.466332
 20
-0.391016
 30
0.0
 10
-59.038129
 20
0.599366
 30
0.0
 10
-59.966333
 20
1.135264
 30
0.0
  0
SPLINE
  5
115
100
AcDbEntity
  8
0
 62
7
100
AcDbSpline
 70
8
 71
3
 72
8
 73
4
 74
0
 40
0
 40
0
 40
0
 40
0
 40
1
 40
1
 40
1
 40
1
 10
-59.966333
 20
1.135264
 30
0.0
 10
-60.894537
 20
1.671163
 30
0.0
 10
-62.038130
 20
1.671163
 30
0.0
 10
-62.966334
 20
1.135264
 30
0.0
  0
SPLINE
  5
116
100
AcDbEntity
  8
0
 62
7
100
AcDbSpline
 70
8
 71
3
 72
8
 73
4
 74
0
 40
0
 40
0
 40
0
 40
0
 40
1
 40
1
 40
1
 40
1
 10
-62.966334
 20
1.135264
 30
0.0
 10
-63.894538
 20
0.599366
 30
0.0
 10
-64.466335
 20
-0.391016
 30
0.0
 10
-64.466335
 20
-1.462813
 30
0.0
  0
SPLINE
  5
117
100
AcDbEntity
  8
0
 62
7
100
AcDbSpline
 70
8
 71
3
 72
8
 73
4
 74
0
 40
0
 40
0
 40
0
 40
0
 40
1
 40
1
 40
1
 40
1
 10
-64.466335
 20
-1.462813
 30
0.0
 10
-64.466335
 20
-2.534610
 30
0.0
 10
-63.894538
 20
-3.524991
 30
0.0
 10
-62.966334
 20
-4.060890
 30
0.0
  0
SPLINE
  5
118
100
AcDbEntity
  8
0
 62
7
100
AcDbSpline
 70
8
 71
3
 72
8
 73
4
 74
0
 40
0
 40
0
 40
0
 40
0
 40
1
 40
1
 40
1
 40
1
 10
-62.966334
 20
-4.060890
 30
0.0
 10
-62.038130
 20
-4.596789
 30
0.0
 10
-60.894537
 20
-4.596789
 30
0.0
 10
-59.966333
 20
-4.060890
 30
0.0
  0
SPLINE
  5
119
100
AcDbEntity
  8
0
 62
7
100
AcDbSpline
 70
8
 71
3
 72
8
 73
4
 74
0
 40
0
 40
0
 40
0
 40
0
 40
1
 40
1
 40
1
 40
1
 10
-59.966333
 20
-4.060890
 30
0.0
 10
-59.038129
 20
-3.524991
 30
0.0
 10
-58.466332
 20
-2.534610
 30
0.0
 10
-58.466332
 20
-1.462813
 30
0.0
  0
LINE
  5
11a
100
AcDbEntity
  8
0
 62
7
100
AcDbLine
 10
-58.466332
 20
-1.462813
 30
0.0
 11
-58.466332
 21
-1.462813
 31
0.0
  0
SPLINE
  5
11b
100
AcDbEntity
  8
0
 62
7
100
AcDbSpline
 70
8
 71
3
 72
8
 73
4
 74
0
 40
0
 40
0
 40
0
 40
0
 40
1
 40
1
 40
1
 40
1
 10
73.559599
 20
3.787198
 30
0.0
 10
73.560257
 20
4.859433
 30
0.0
 10
72.988604
 20
5.850500
 30
0.0
 10
72.060131
 20
6.386808
 30
0.0
  0
SPLINE
  5
11c
100
AcDbEntity
  8
0
 62
7
100
AcDbSpline
 70
8
 71
3
 72
8
 73
4
 74
0
 40
0
 40
0
 40
0
 40
0
 40
1
 40
1
 40
1
 40
1
 10
72.060131
 20
6.386808
 30
0.0
 10
71.131658
 20
6.923115
 30
0.0
 10
69.987542
 20
6.923115
 30
0.0
 10
69.059068
 20
6.386808
 30
0.0
  0
SPLINE
  5
11d
100
AcDbEntity
  8
0
 62
7
100
AcDbSpline
 70
8
 71
3
 72
8
 73
4
 74
0
 40
0
 40
0
 40
0
 40
0
 40
1
 40
1
 40
1
 40
1
 10
69.059068
 20
6.386808
 30
0.0
 10
68.130595
 20
5.850500
 30
0.0
 10
67.558942
 20
4.859433
 30
0.0
 10
67.559600
 20
3.787198
 30
0.0
  0
SPLINE
  5
11e
100
AcDbEntity
  8
0
 62
7
100
AcDbSpline
 70
8
 71
3
 72
8
 73
4
 74
0
 40
0
 40
0
 40
0
 40
0
 40
1
 40
1
 40
1
 40
1
 10
67.559600
 20
3.787198
 30
0.0
 10
67.558942
 20
2.714963
 30
0.0
 10
68.130595
 20
1.723895
 30
0.0
 10
69.059068
 20
1.187588
 30
0.0
  0
SPLINE
  5
11f
100
AcDbEntity
  8
0
 62
7
100
AcDbSpline
 70
8
 71
3
 72
8
 73
4
 74
0
 40
0
 40
0
 40
0
 40
0
 40
1
 40
1
 40
1
 40
1
 10
69.059068
 20
1.187588
 30
0.0
 10
69.987542
 20
0.651280
 30
0.0
 10
71.131658
 20
0.651280
 30
0.0
 10
72.060131
 20
1.187588
 30
0.0
  0
SPLINE
  5
120
100
AcDbEntity
  8
0
 62
7
100
AcDbSpline
 70
8
 71
3
 72
8
 73
4
 74
0
 40
0
 40
0
 40
0
 40
0
 40
1
 40
1
 40
1
 40
1
 10
72.060131
 20
1.187588
 30
0.0
 10
72.988604
 20
1.723895
 30
0.0
 10
73.560257
 20
2.714963
 30
0.0
 10
73.559599
 20
3.787198
 30
0.0
  0
LINE
  5
121
100
AcDbEntity
  8
0
 62
7
100
AcDbLine
 10
73.559599
 20
3.787198
 30
0.0
 11
73.559599
 21
3.787198
 31
0.0
  0
SPLINE
  5
122
100
AcDbEntity
  8
0
 62
7
100
AcDbSpline
 70
8
 71
3
 72
8
 73
4
 74
0
 40
0
 40
0
 40
0
 40
0
 40
1
 40
1
 40
1
 40
1
 10
64.466335
 20
-1.462813
 30
0.0
 10
64.466335
 20
-0.391016
 30
0.0
 10
63.894538
 20
0.599366
 30
0.0
 10
62.966334
 20
1.135264
 30
0.0
  0
SPLINE
  5
123
100
AcDbEntity
  8
0
 62
7
100
AcDbSpline
 70
8
 71
3
 72
8
 73
4
 74
0
 40
0
 40
0
 40
0
 40
0
 40
1
 40
1
 40
1
 40
1
 10
62.966334
 20
1.135264
 30
0.0
 10
62.038130
 20
1.671163
 30
0.0
 10
60.894537
 20
1.671163
 30
0.0
 10
59.966333
 20
1.135264
 30
0.0
  0
SPLINE
  5
124
100
AcDbEntity
  8
0
 62
7
100
AcDbSpline
 70
8
 71
3
 72
8
 73
4
 74
0
 40
0
 40
0
 40
0
 40
0
 40
1
 40
1
 40
1
 40
1
 10
59.966333
 20
1.135264
 30
0.0
 10
59.038129
 20
0.599366
 30
0.0
 10
58.466332
 20
-0.391016
 30
0.0
 10
58.466332
 20
-1.462813
 30
0.0
  0
SPLINE
  5
125
100
AcDbEntity
  8
0
 62
7
100
AcDbSpline
 70
8
 71
3
 72
8
 73
4
 74
0
 40
0
 40
0
 40
0
 40
0
 40
1
 40
1
 40
1
 40
1
 10
58.466332
 20
-1.462813
 30
0.0
 10
58.466332
 20
-2.534610
 30
0.0
 10
59.038129
 20
-3.524991
 30
0.0
 10
59.966333
 20
-4.060890
 30
0.0
  0
SPLINE
  5
126
100
AcDbEntity
  8
0
 62
7
100
AcDbSpline
 70
8
 71
3
 72
8
 73
4
 74
0
 40
0
 40
0
 40
0
 40
0
 40
1
 40
1
 40
1
 40
1
 10
59.966333
 20
-4.060890
 30
0.0
 10
60.894537
 20
-4.596789
 30
0.0
 10
62.038130
 20
-4.596789
 30
0.0
 10
62.966334
 20
-4.060890
 30
0.0
  0
SPLINE
  5
127
100
AcDbEntity
  8
0
 62
7
100
AcDbSpline
 70
8
 71
3
 72
8
 73
4
 74
0
 40
0
 40
0
 40
0
 40
0
 40
1
 40
1
 40
1
 40
1
 10
62.966334
 20
-4.060890
 30
0.0
 10
63.894538
 20
-3.524991
 30
0.0
 10
64.466335
 20
-2.534610
 30
0.0
 10
64.466335
 20
-1.462813
 30
0.0
  0
LINE
  5
128
100
AcDbEntity
  8
0
 62
7
100
AcDbLine
 10
64.466335
 20
-1.462813
 30
0.0
 11
64.466335
 21
-1.462813
 31
0.0
  0
SPLINE
  5
129
100
AcDbEntity
  8
0
 62
7
100
AcDbSpline
 70
8
 71
3
 72
8
 73
4
 74
0
 40
0
 40
0
 40
0
 40
0
 40
1
 40
1
 40
1
 40
1
 10
41.559601
 20
59.212812
 30
0.0
 10
41.559601
 20
60.284609
 30
0.0
 10
40.987804
 20
61.274990
 30
0.0
 10
40.059601
 20
61.810889
 30
0.0
  0
SPLINE
  5
12a
100
AcDbEntity
  8
0
 62
7
100
AcDbSpline
 70
8
 71
3
 72
8
 73
4
 74
0
 40
0
 40
0
 40
0
 40
0
 40
1
 40
1
 40
1
 40
1
 10
40.059601
 20
61.810889
 30
0.0
 10
39.131397
 20
62.346787
 30
0.0
 10
37.987803
 20
62.346787
 30
0.0
 10
37.059600
 20
61.810889
 30
0.0
  0
SPLINE
  5
12b
100
AcDbEntity
  8
0
 62
7
100
AcDbSpline
 70
8
 71
3
 72
8
 73
4
 74
0
 40
0
 40
0
 40
0
 40
0
 40
1
 40
1
 40
1
 40
1
 10
37.059600
 20
61.810889
 30
0.0
 10
36.131396
 20
61.274990
 30
0.0
 10
35.559599
 20
60.284609
 30
0.0
 10
35.559599
 20
59.212812
 30
0.0
  0
SPLINE
  5
12c
100
AcDbEntity
  8
0
 62
7
100
AcDbSpline
 70
8
 71
3
 72
8
 73
4
 74
0
 40
0
 40
0
 40
0
 40
0
 40
1
 40
1
 40
1
 40
1
 10
35.559599
 20
59.212812
 30
0.0
 10
35.559599
 20
58.141014
 30
0.0
 10
36.131396
 20
57.150633
 30
0.0
 10
37.059600
 20
56.614734
 30
0.0
  0
SPLINE
  5
12d
100
AcDbEntity
  8
0
 62
7
100
AcDbSpline
 70
8
 71
3
 72
8
 73
4
 74
0
 40
0
 40
0
 40
0
 40
0
 40
1
 40
1
 40
1
 40
1
 10
37.059600
 20
56.614734
 30
0.0
 10
37.987803
 20
56.078836
 30
0.0
 10
39.131397
 20
56.078836
 30
0.0
 10
40.059601
 20
56.614734
 30
0.0
  0
SPLINE
  5
12e
100
AcDbEntity
  8
0
 62
7
100
AcDbSpline
 70
8
 71
3
 72
8
 73
4
 74
0
 40
0
 40
0
 40
0
 40
0
 40
1
 40
1
 40
1
 40
1
 10
40.059601
 20
56.614734
 30
0.0
 10
40.987804
 20
57.150633
 30
0.0
 10
41.559601
 20
58.141014
 30
0.0
 10
41.559601
 20
59.212812
 30
0.0
  0
LINE
  5
12f
100
AcDbEntity
  8
0
 62
7
100
AcDbLine
 10
41.559601
 20
59.212812
 30
0.0
 11
41.559601
 21
59.212812
 31
0.0
  0
SPLINE
  5
130
100
AcDbEntity
  8
0
 62
7
100
AcDbSpline
 70
8
 71
3
 72
8
 73
4
 74
0
 40
0
 40
0
 40
0
 40
0
 40
1
 40
1
 40
1
 40
1
 10
32.466334
 20
53.962812
 30
0.0
 10
32.466662
 20
55.034828
 30
0.0
 10
31.894938
 20
56.025552
 30
0.0
 10
30.966599
 20
56.561655
 30
0.0
  0
SPLINE
  5
131
100
AcDbEntity
  8
0
 62
7
100
AcDbSpline
 70
8
 71
3
 72
8
 73
4
 74
0
 40
0
 40
0
 40
0
 40
0
 40
1
 40
1
 40
1
 40
1
 10
30.966599
 20
56.561655
 30
0.0
 10
30.038261
 20
57.097758
 30
0.0
 10
28.894406
 20
57.097758
 30
0.0
 10
27.966068
 20
56.561655
 30
0.0
  0
SPLINE
  5
132
100
AcDbEntity
  8
0
 62
7
100
AcDbSpline
 70
8
 71
3
 72
8
 73
4
 74
0
 40
0
 40
0
 40
0
 40
0
 40
1
 40
1
 40
1
 40
1
 10
27.966068
 20
56.561655
 30
0.0
 10
27.037730
 20
56.025552
 30
0.0
 10
26.466005
 20
55.034828
 30
0.0
 10
26.466333
 20
53.962812
 30
0.0
  0
SPLINE
  5
133
100
AcDbEntity
  8
0
 62
7
100
AcDbSpline
 70
8
 71
3
 72
8
 73
4
 74
0
 40
0
 40
0
 40
0
 40
0
 40
1
 40
1
 40
1
 40
1
 10
26.466333
 20
53.962812
 30
0.0
 10
26.466842
 20
52.306317
 30
0.0
 10
27.809839
 20
50.963732
 30
0.0
 10
29.466334
 20
50.963732
 30
0.0
  0
SPLINE
  5
134
100
AcDbEntity
  8
0
 62
7
100
AcDbSpline
 70
8
 71
3
 72
8
 73
4
 74
0
 40
0
 40
0
 40
0
 40
0
 40
1
 40
1
 40
1
 40
1
 10
29.466334
 20
50.963732
 30
0.0
 10
31.122829
 20
50.963732
 30
0.0
 10
32.465826
 20
52.306317
 30
0.0
 10
32.466334
 20
53.962812
 30
0.0
  0
LINE
  5
135
100
AcDbEntity
  8
0
 62
7
100
AcDbLine
 10
32.466334
 20
53.962812
 30
0.0
 11
32.466334
 21
53.962812
 31
0.0
  0
SPLINE
  5
136
100
AcDbEntity
  8
0
 62
7
100
AcDbSpline
 70
8
 71
3
 72
8
 73
4
 74
0
 40
0
 40
0
 40
0
 40
0
 40
1
 40
1
 40
1
 40
1
 10
-29.000001
 20
-63.000014
 30
0.0
 10
-28.999344
 20
-61.927779
 30
0.0
 10
-29.570996
 20
-60.936711
 30
0.0
 10
-30.499470
 20
-60.400404
 30
0.0
  0
SPLINE
  5
137
100
AcDbEntity
  8
0
 62
7
100
AcDbSpline
 70
8
 71
3
 72
8
 73
4
 74
0
 40
0
 40
0
 40
0
 40
0
 40
1
 40
1
 40
1
 40
1
 10
-30.499470
 20
-60.400404
 30
0.0
 10
-31.427943
 20
-59.864096
 30
0.0
 10
-32.572059
 20
-59.864096
 30
0.0
 10
-33.500532
 20
-60.400404
 30
0.0
  0
SPLINE
  5
138
100
AcDbEntity
  8
0
 62
7
100
AcDbSpline
 70
8
 71
3
 72
8
 73
4
 74
0
 40
0
 40
0
 40
0
 40
0
 40
1
 40
1
 40
1
 40
1
 10
-33.500532
 20
-60.400404
 30
0.0
 10
-34.429005
 20
-60.936711
 30
0.0
 10
-35.000658
 20
-61.927779
 30
0.0
 10
-35.000001
 20
-63.000014
 30
0.0
  0
SPLINE
  5
139
100
AcDbEntity
  8
0
 62
7
100
AcDbSpline
 70
8
 71
3
 72
8
 73
4
 74
0
 40
0
 40
0
 40
0
 40
0
 40
1
 40
1
 40
1
 40
1
 10
-35.000001
 20
-63.000014
 30
0.0
 10
-35.000658
 20
-64.072249
 30
0.0
 10
-34.429005
 20
-65.063316
 30
0.0
 10
-33.500532
 20
-65.599624
 30
0.0
  0
SPLINE
  5
13a
100
AcDbEntity
  8
0
 62
7
100
AcDbSpline
 70
8
 71
3
 72
8
 73
4
 74
0
 40
0
 40
0
 40
0
 40
0
 40
1
 40
1
 40
1
 40
1
 10
-33.500532
 20
-65.599624
 30
0.0
 10
-32.572059
 20
-66.135931
 30
0.0
 10
-31.427943
 20
-66.135931
 30
0.0
 10
-30.499470
 20
-65.599624
 30
0.0
  0
SPLINE
  5
13b
100
AcDbEntity
  8
0
 62
7
100
AcDbSpline
 70
8
 71
3
 72
8
 73
4
 74
0
 40
0
 40
0
 40
0
 40
0
 40
1
 40
1
 40
1
 40
1
 10
-30.499470
 20
-65.599624
 30
0.0
 10
-29.570996
 20
-65.063316
 30
0.0
 10
-28.999344
 20
-64.072249
 30
0.0
 10
-29.000001
 20
-63.000014
 30
0.0
  0
LINE
  5
13c
100
AcDbEntity
  8
0
 62
7
100
AcDbLine
 10
-29.000001
 20
-63.000014
 30
0.0
 11
-29.000001
 21
-63.000014
 31
0.0
  0
SPLINE
  5
13d
100
AcDbEntity
  8
0
 62
7
100
AcDbSpline
 70
8
 71
3
 72
8
 73
4
 74
0
 40
0
 40
0
 40
0
 40
0
 40
1
 40
1
 40
1
 40
1
 10
-29.000001
 20
-52.499992
 30
0.0
 10
-28.999344
 20
-51.427757
 30
0.0
 10
-29.570996
 20
-50.436690
 30
0.0
 10
-30.499470
 20
-49.900383
 30
0.0
  0
SPLINE
  5
13e
100
AcDbEntity
  8
0
 62
7
100
AcDbSpline
 70
8
 71
3
 72
8
 73
4
 74
0
 40
0
 40
0
 40
0
 40
0
 40
1
 40
1
 40
1
 40
1
 10
-30.499470
 20
-49.900383
 30
0.0
 10
-31.427943
 20
-49.364075
 30
0.0
 10
-32.572059
 20
-49.364075
 30
0.0
 10
-33.500532
 20
-49.900383
 30
0.0
  0
SPLINE
  5
13f
100
AcDbEntity
  8
0
 62
7
100
AcDbSpline
 70
8
 71
3
 72
8
 73
4
 74
0
 40
0
 40
0
 40
0
 40
0
 40
1
 40
1
 40
1
 40
1
 10
-33.500532
 20
-49.900383
 30
0.0
 10
-34.429005
 20
-50.436690
 30
0.0
 10
-35.000658
 20
-51.427757
 30
0.0
 10
-35.000001
 20
-52.499992
 30
0.0
  0
SPLINE
  5
140
100
AcDbEntity
  8
0
 62
7
100
AcDbSpline
 70
8
 71
3
 72
8
 73
4
 74
0
 40
0
 40
0
 40
0
 40
0
 40
1
 40
1
 40
1
 40
1
 10
-35.000001
 20
-52.499992
 30
0.0
 10
-35.000658
 20
-53.572227
 30
0.0
 10
-34.429005
 20
-54.563295
 30
0.0
 10
-33.500532
 20
-55.099602
 30
0.0
  0
SPLINE
  5
141
100
AcDbEntity
  8
0
 62
7
100
AcDbSpline
 70
8
 71
3
 72
8
 73
4
 74
0
 40
0
 40
0
 40
0
 40
0
 40
1
 40
1
 40
1
 40
1
 10
-33.500532
 20
-55.099602
 30
0.0
 10
-32.572059
 20
-55.635910
 30
0.0
 10
-31.427943
 20
-55.635910
 30
0.0
 10
-30.499470
 20
-55.099602
 30
0.0
  0
SPLINE
  5
142
100
AcDbEntity
  8
0
 62
7
100
AcDbSpline
 70
8
 71
3
 72
8
 73
4
 74
0
 40
0
 40
0
 40
0
 40
0
 40
1
 40
1
 40
1
 40
1
 10
-30.499470
 20
-55.099602
 30
0.0
 10
-29.570996
 20
-54.563295
 30
0.0
 10
-28.999344
 20
-53.572227
 30
0.0
 10
-29.000001
 20
-52.499992
 30
0.0
  0
LINE
  5
143
100
AcDbEntity
  8
0
 62
7
100
AcDbLine
 10
-29.000001
 20
-52.499992
 30
0.0
 11
-29.000001
 21
-52.499992
 31
0.0
  0
SPLINE
  5
144
100
AcDbEntity
  8
0
 62
7
100
AcDbSpline
 70
8
 71
3
 72
8
 73
4
 74
0
 40
0
 40
0
 40
0
 40
0
 40
1
 40
1
 40
1
 40
1
 10
35.000001
 20
-63.000014
 30
0.0
 10
35.000658
 20
-61.927779
 30
0.0
 10
34.429005
 20
-60.936711
 30
0.0
 10
33.500532
 20
-60.400404
 30
0.0
  0
SPLINE
  5
145
100
AcDbEntity
  8
0
 62
7
100
AcDbSpline
 70
8
 71
3
 72
8
 73
4
 74
0
 40
0
 40
0
 40
0
 40
0
 40
1
 40
1
 40
1
 40
1
 10
33.500532
 20
-60.400404
 30
0.0
 10
32.572059
 20
-59.864096
 30
0.0
 10
31.427943
 20
-59.864096
 30
0.0
 10
30.499470
 20
-60.400404
 30
0.0
  0
SPLINE
  5
146
100
AcDbEntity
  8
0
 62
7
100
AcDbSpline
 70
8
 71
3
 72
8
 73
4
 74
0
 40
0
 40
0
 40
0
 40
0
 40
1
 40
1
 40
1
 40
1
 10
30.499470
 20
-60.400404
 30
0.0
 10
29.570996
 20
-60.936711
 30
0.0
 10
28.999344
 20
-61.927779
 30
0.0
 10
29.000001
 20
-63.000014
 30
0.0
  0
SPLINE
  5
147
100
AcDbEntity
  8
0
 62
7
100
AcDbSpline
 70
8
 71
3
 72
8
 73
4
 74
0
 40
0
 40
0
 40
0
 40
0
 40
1
 40
1
 40
1
 40
1
 10
29.000001
 20
-63.000014
 30
0.0
 10
28.999344
 20
-64.072249
 30
0.0
 10
29.570996
 20
-65.063316
 30
0.0
 10
30.499470
 20
-65.599624
 30
0.0
  0
SPLINE
  5
148
100
AcDbEntity
  8
0
 62
7
100
AcDbSpline
 70
8
 71
3
 72
8
 73
4
 74
0
 40
0
 40
0
 40
0
 40
0
 40
1
 40
1
 40
1
 40
1
 10
30.499470
 20
-65.599624
 30
0.0
 10
31.427943
 20
-66.135931
 30
0.0
 10
32.572059
 20
-66.135931
 30
0.0
 10
33.500532
 20
-65.599624
 30
0.0
  0
SPLINE
  5
149
100
AcDbEntity
  8
0
 62
7
100
AcDbSpline
 70
8
 71
3
 72
8
 73
4
 74
0
 40
0
 40
0
 40
0
 40
0
 40
1
 40
1
 40
1
 40
1
 10
33.500532
 20
-65.599624
 30
0.0
 10
34.429005
 20
-65.063316
 30
0.0
 10
35.000658
 20
-64.072249
 30
0.0
 10
35.000001
 20
-63.000014
 30
0.0
  0
LINE
  5
14a
100
AcDbEntity
  8
0
 62
7
100
AcDbLine
 10
35.000001
 20
-63.000014
 30
0.0
 11
35.000001
 21
-63.000014
 31
0.0
  0
SPLINE
  5
14b
100
AcDbEntity
  8
0
 62
7
100
AcDbSpline
 70
8
 71
3
 72
8
 73
4
 74
0
 40
0
 40
0
 40
0
 40
0
 40
1
 40
1
 40
1
 40
1
 10
35.000001
 20
-52.499992
 30
0.0
 10
35.000658
 20
-51.427757
 30
0.0
 10
34.429005
 20
-50.436690
 30
0.0
 10
33.500532
 20
-49.900383
 30
0.0
  0
SPLINE
  5
14c
100
AcDbEntity
  8
0
 62
7
100
AcDbSpline
 70
8
 71
3
 72
8
 73
4
 74
0
 40
0
 40
0
 40
0
 40
0
 40
1
 40
1
 40
1
 40
1
 10
33.500532
 20
-49.900383
 30
0.0
 10
32.572059
 20
-49.364075
 30
0.0
 10
31.427943
 20
-49.364075
 30
0.0
 10
30.499470
 20
-49.900383
 30
0.0
  0
SPLINE
  5
14d
100
AcDbEntity
  8
0
 62
7
100
AcDbSpline
 70
8
 71
3
 72
8
 73
4
 74
0
 40
0
 40
0
 40
0
 40
0
 40
1
 40
1
 40
1
 40
1
 10
30.499470
 20
-49.900383
 30
0.0
 10
29.570996
 20
-50.436690
 30
0.0
 10
28.999344
 20
-51.427757
 30
0.0
 10
29.000001
 20
-52.499992
 30
0.0
  0
SPLINE
  5
14e
100
AcDbEntity
  8
0
 62
7
100
AcDbSpline
 70
8
 71
3
 72
8
 73
4
 74
0
 40
0
 40
0
 40
0
 40
0
 40
1
 40
1
 40
1
 40
1
 10
29.000001
 20
-52.499992
 30
0.0
 10
28.999344
 20
-53.572227
 30
0.0
 10
29.570996
 20
-54.563295
 30
0.0
 10
30.499470
 20
-55.099602
 30
0.0
  0
SPLINE
  5
14f
100
AcDbEntity
  8
0
 62
7
100
AcDbSpline
 70
8
 71
3
 72
8
 73
4
 74
0
 40
0
 40
0
 40
0
 40
0
 40
1
 40
1
 40
1
 40
1
 10
30.499470
 20
-55.099602
 30
0.0
 10
31.427943
 20
-55.635910
 30
0.0
 10
32.572059
 20
-55.635910
 30
0.0
 10
33.500532
 20
-55.099602
 30
0.0
  0
SPLINE
  5
150
100
AcDbEntity
  8
0
 62
7
100
AcDbSpline
 70
8
 71
3
 72
8
 73
4
 74
0
 40
0
 40
0
 40
0
 40
0
 40
1
 40
1
 40
1
 40
1
 10
33.500532
 20
-55.099602
 30
0.0
 10
34.429005
 20
-54.563295
 30
0.0
 10
35.000658
 20
-53.572227
 30
0.0
 10
35.000001
 20
-52.499992
 30
0.0
  0
LINE
  5
151
100
AcDbEntity
  8
0
 62
7
100
AcDbLine
 10
35.000001
 20
-52.499992
 30
0.0
 11
35.000001
 21
-52.499992
 31
0.0
  0
SPLINE
  5
152
100
AcDbEntity
  8
0
 62
7
100
AcDbSpline
 70
8
 71
3
 72
8
 73
4
 74
0
 40
0
 40
0
 40
0
 40
0
 40
1
 40
1
 40
1
 40
1
 10
100.000000
 20
-0.000000
 30
0.0
 10
100.000001
 20
35.726559
 30
0.0
 10
80.940108
 20
68.739262
 30
0.0
 10
50.000000
 20
86.602542
 30
0.0
  0
SPLINE
  5
153
100
AcDbEntity
  8
0
 62
7
100
AcDbSpline
 70
8
 71
3
 72
8
 73
4
 74
0
 40
0
 40
0
 40
0
 40
0
 40
1
 40
1
 40
1
 40
1
 10
50.000000
 20
86.602542
 30
0.0
 10
19.059893
 20
104.465821
 30
0.0
 10
-19.059893
 20
104.465821
 30
0.0
 10
-50.000000
 20
86.602542
 30
0.0
  0
SPLINE
  5
154
100
AcDbEntity
  8
0
 62
7
100
AcDbSpline
 70
8
 71
3
 72
8
 73
4
 74
0
 40
0
 40
0
 40
0
 40
0
 40
1
 40
1
 40
1
 40
1
 10
-50.000000
 20
86.602542
 30
0.0
 10
-80.940108
 20
68.739262
 30
0.0
 10
-100.000001
 20
35.726559
 30
0.0
 10
-100.000000
 20
-0.000000
 30
0.0
  0
SPLINE
  5
155
100
AcDbEntity
  8
0
 62
7
100
AcDbSpline
 70
8
 71
3
 72
8
 73
4
 74
0
 40
0
 40
0
 40
0
 40
0
 40
1
 40
1
 40
1
 40
1
 10
-100.000000
 20
-0.000000
 30
0.0
 10
-100.000001
 20
-35.726560
 30
0.0
 10
-80.940109
 20
-68.739262
 30
0.0
 10
-50.000001
 20
-86.602542
 30
0.0
  0
SPLINE
  5
156
100
AcDbEntity
  8
0
 62
7
100
AcDbSpline
 70
8
 71
3
 72
8
 73
4
 74
0
 40
0
 40
0
 40
0
 40
0
 40
1
 40
1
 40
1
 40
1
 10
-50.000001
 20
-86.602542
 30
0.0
 10
-19.059893
 20
-104.465822
 30
0.0
 10
19.059893
 20
-104.465822
 30
0.0
 10
50.000001
 20
-86.602542
 30
0.0
  0
SPLINE
  5
157
100
AcDbEntity
  8
0
 62
7
100
AcDbSpline
 70
8
 71
3
 72
8
 73
4
 74
0
 40
0
 40
0
 40
0
 40
0
 40
1
 40
1
 40
1
 40
1
 10
50.000001
 20
-86.602542
 30
0.0
 10
80.940109
 20
-68.739262
 30
0.0
 10
100.000001
 20
-35.726560
 30
0.0
 10
100.000000
 20
-0.000000
 30
0.0
  0
LINE
  5
158
100
AcDbEntity
  8
0
 62
7
100
AcDbLine
 10
100.000000
 20
-0.000000
 30
0.0
 11
100.000000
 21
-0.000000
 31
0.0
  0
ENDSEC
  0
SECTION
  2
OBJECTS
  0
DICTIONARY
  5
C
330
0
100
AcDbDictionary
  3
ACAD_GROUP
350
D
  3
ACAD_MLINESTYLE
350
17
  0
DICTIONARY
  5
D
330
C
100
AcDbDictionary
  0
DICTIONARY
  5
1A
330
C
100
AcDbDictionary
  0
DICTIONARY
  5
17
330
C
100
AcDbDictionary
  3
STANDARD
350
18
  0
DICTIONARY
  5
19
330
C
100
AcDbDictionary
  0
ENDSEC
  0
EOF
